<svg width="261" height="261" viewBox="0 0 261 261" fill="none" xmlns="http://www.w3.org/2000/svg">
<path d="M260.045 129.89C259.945 202.25 201.867 260.513 129.979 260.385C57.6879 260.255 -0.167128 201.922 -0.000127654 129.331C0.162872 58.176 58.4178 -0.208013 129.046 0.00098663C202.185 0.216987 260.15 57.691 260.045 129.89ZM129.88 9.43598C63.2878 9.43598 8.8598 63.951 9.1278 130.388C9.3958 196.799 63.6279 250.931 129.894 250.939C196.706 250.947 250.655 196.859 250.911 129.609C251.163 63.754 196.461 9.43998 129.88 9.43598Z" fill="#EE6C4D"/>
<path d="M113.124 148.38C124.553 135.136 135.424 122.543 146.29 109.942C154.99 99.8533 163.687 89.7616 172.381 79.667C177.945 73.244 185.286 72.15 190.781 76.833C196.09 81.356 196.343 88.592 191.267 95.11C169.576 122.96 147.86 150.791 126.118 178.602C118.206 188.71 107.435 188.934 99.086 179.242C89.3053 167.886 79.5671 156.494 69.8711 145.065C63.1461 137.146 63.4708 127.465 70.5518 121.613C77.7248 115.688 86.8892 117.136 93.7412 125.288C100.042 132.784 106.332 140.287 113.124 148.38Z" fill="#EE6C4D"/>
</svg>
