<svg xmlns="http://www.w3.org/2000/svg" viewBox="0 0 52 52"><path fill="none" stroke="#000" stroke-linecap="round" stroke-linejoin="round" stroke-miterlimit="10" stroke-width="2" d="M31.778 44.397L26.175 50V37.223c-4.215 1.207-7.873.862-10.067-1.331-2.193-2.194-2.538-5.852-1.331-10.067H2l5.603-5.603c2.95-2.95 7.136-2.921 10.067-.948 1.724-2.97 4.051-5.986 6.876-8.812 9.348-9.348 25.43-8.438 25.43-8.438s.91 16.082-8.438 25.43c-2.826 2.825-5.843 5.152-8.812 6.876 1.973 2.931 2.002 7.117-.948 10.067z"/><circle cx="37.003" cy="14.997" r="4.064" fill="none" stroke="#000" stroke-linecap="round" stroke-linejoin="round" stroke-miterlimit="10" stroke-width="2"/><path fill="none" stroke="#000" stroke-linecap="round" stroke-linejoin="round" stroke-miterlimit="10" stroke-width="2" d="M13.653 44.717c-1.76 1.758-8.662 2.292-8.662 2.292s.534-6.903 2.292-8.662a4.504 4.504 0 116.37 6.37zM40.297 2.82c1.31 4.17 4.7 7.41 8.95 8.51"/><path fill="none" stroke="#000" stroke-linecap="round" stroke-linejoin="round" stroke-miterlimit="10" stroke-width="2" d="M31.778 44.397L26.175 50V37.223c-4.215 1.207-7.873.862-10.067-1.331-2.193-2.194-2.538-5.852-1.331-10.067H2l5.603-5.603c2.95-2.95 7.136-2.921 10.067-.948 1.724-2.97 4.051-5.986 6.876-8.812 9.348-9.348 25.43-8.438 25.43-8.438s.91 16.082-8.438 25.43c-2.826 2.825-5.843 5.152-8.812 6.876 1.973 2.931 2.002 7.117-.948 10.067z"/><circle cx="37.003" cy="14.997" r="4.064" fill="none" stroke="#000" stroke-linecap="round" stroke-linejoin="round" stroke-miterlimit="10" stroke-width="2"/><path fill="none" stroke="#000" stroke-linecap="round" stroke-linejoin="round" stroke-miterlimit="10" stroke-width="2" d="M13.653 44.717c-1.76 1.758-8.662 2.292-8.662 2.292s.534-6.903 2.292-8.662a4.504 4.504 0 116.37 6.37zM40.297 2.82c1.31 4.17 4.7 7.41 8.95 8.51"/></svg>